<?xml version="1.0" encoding="utf-8"?>
<!-- Generator: Adobe Illustrator 23.0.1, SVG Export Plug-In . SVG Version: 6.00 Build 0)  -->
<svg version="1.1" id="Layer_1" xmlns="http://www.w3.org/2000/svg" xmlns:xlink="http://www.w3.org/1999/xlink" x="0px" y="0px"
	 viewBox="0 0 64 64" style="enable-background:new 0 0 64 64;" xml:space="preserve">
<style type="text/css">
	.st0{fill:#E0BE4F;}
	.st1{fill:#FFFFFF;}
</style>
<path class="st0" d="M59.6,26h-3.08c-3.45,0-5.18-4.18-2.74-6.62l2.65-2.65c0.94-0.94,0.94-2.46,0-3.4l-5.09-5.09
	c-0.94-0.94-2.46-0.94-3.4,0l-3.32,3.32C42.18,14.01,38,12.28,38,8.82V4.4C38,3.08,36.92,2,35.6,2H28.4C27.08,2,26,3.08,26,4.4v3.42
	c0,3.45-4.18,5.18-6.62,2.74l-2.32-2.32c-0.94-0.94-2.46-0.94-3.4,0l-5.09,5.09c-0.94,0.94-0.94,2.46,0,3.4l2.65,2.65
	C13.67,21.82,11.94,26,8.49,26H4.4C3.08,26,2,27.08,2,28.4v7.19C2,36.92,3.08,38,4.4,38h4.42c3.45,0,5.18,4.18,2.74,6.62l-2.65,2.65
	c-0.94,0.94-0.94,2.46,0,3.4L14,55.76c0.94,0.94,2.46,0.94,3.4,0l1.99-1.99c2.44-2.44,6.62-0.71,6.62,2.74v3.08
	c0,1.33,1.08,2.4,2.4,2.4h7.19c1.33,0,2.4-1.08,2.4-2.4v-4.08c0-3.45,4.18-5.18,6.62-2.74l2.99,2.99c0.94,0.94,2.46,0.94,3.4,0
	l5.09-5.09c0.94-0.94,0.94-2.46,0-3.4l-2.65-2.65C50.99,42.18,52.72,38,56.18,38h3.42c1.33,0,2.4-1.08,2.4-2.4V28.4
	C62,27.08,60.92,26,59.6,26z"/>
<circle class="st1" cx="32" cy="32" r="12"/>
</svg>
